<?xml version="1.0" encoding="iso-8859-1"?>
<!-- Generator: Adobe Illustrator 19.0.0, SVG Export Plug-In . SVG Version: 6.00 Build 0)  -->
<svg version="1.1" width="30px" height="30px" id="Capa_1" xmlns="http://www.w3.org/2000/svg" xmlns:xlink="http://www.w3.org/1999/xlink" x="0px" y="0px"
	 viewBox="0 0 511.999 511.999" style="enable-background:new 0 0 511.999 511.999;" xml:space="preserve">
<path style="fill:#FFA5B5;" d="M333.712,504.229h-162.68V180.94c0-9.729,7.887-17.615,17.615-17.615h127.45
	c9.729,0,17.615,7.887,17.615,17.615V504.229z"/>
<path style="fill:#FF728B;" d="M316.097,163.325h-55.954c9.729,0,17.615,7.887,17.615,17.615v323.289h55.954V180.94
	C333.712,171.212,325.825,163.325,316.097,163.325z"/>
<path style="fill:#E26477;" d="M272.922,163.325h-30.74h-30.74v72.965c0,8.489,6.881,15.37,15.37,15.37l0,0
	c8.489,0,15.37-6.881,15.37-15.37v-12.348c0-10.015,6.881-18.133,15.37-18.133s15.37,8.118,15.37,18.133v47.319
	c0,8.489,6.881,15.37,15.37,15.37l0,0c8.489,0,15.37-6.881,15.37-15.37V163.325H272.922z"/>
<path style="fill:#FFCF65;" d="M294.516,77.964c0,23.419-18.985,42.404-42.404,42.404s-42.404-18.985-42.404-42.404
	c0-18.943,27.743-55.117,38.349-68.253c2.088-2.587,6.022-2.587,8.11,0C266.773,22.847,294.516,59.021,294.516,77.964z"/>
<path style="fill:#FFB450;" d="M248.059,9.709c-1.147,1.421-2.494,3.111-3.985,5.019c12.396,15.941,33.783,45.855,33.783,62.489
	c0,21.216-15.582,38.793-35.926,41.911c3.262,0.804,6.67,1.239,10.181,1.239c23.419,0,42.404-18.985,42.404-42.403
	c0-18.943-27.743-55.116-38.348-68.253C254.08,7.125,250.147,7.123,248.059,9.709z"/>
<path d="M396.919,496.457h-55.436V180.94c0-13.999-11.388-25.386-25.386-25.386H260.26v-28.086
	c23.804-3.905,42.028-24.612,42.028-49.504c0-20.444-25.107-54.596-40.074-73.135C259.735,1.76,256.054,0,252.112,0
	c-3.941,0-7.623,1.76-10.102,4.83c-14.966,18.538-40.073,52.689-40.073,73.134c0,25.154,18.607,46.039,42.779,49.627v27.963h-56.07
	c-13.998,0-25.386,11.388-25.386,25.386v254.896c0,4.292,3.479,7.771,7.771,7.771s7.771-3.479,7.771-7.771V180.94
	c0-5.428,4.416-9.844,9.844-9.844h15.025v65.193c0,12.76,10.381,23.141,23.142,23.141c12.76,0,23.141-10.381,23.141-23.141v-12.348
	c0-5.617,3.48-10.362,7.599-10.362c4.119,0,7.599,4.745,7.599,10.362v47.319c0,12.76,10.381,23.141,23.141,23.141
	s23.142-10.381,23.142-23.141v-73.056c0-4.292-3.479-7.771-7.771-7.771s-7.771,3.479-7.771,7.771v73.056
	c0,4.189-3.409,7.598-7.599,7.598s-7.598-3.409-7.598-7.598v-47.319c0-14.284-10.381-25.905-23.142-25.905
	c-12.76,0-23.142,11.621-23.142,25.905v12.348c0,4.189-3.409,7.598-7.598,7.598c-4.19,0-7.599-3.409-7.599-7.598v-65.193h96.883
	c5.428,0,9.844,4.416,9.844,9.844v315.517H178.803v-27.464c0-4.292-3.479-7.771-7.771-7.771s-7.771,3.479-7.771,7.771v27.464
	h-48.182c-4.292,0-7.771,3.479-7.771,7.771s3.479,7.771,7.771,7.771h55.954h162.68h63.207c4.292,0,7.771-3.479,7.771-7.771
	S401.211,496.457,396.919,496.457z M217.48,77.964c0-3.749,1.818-12.911,13.992-32.148c7.149-11.295,15.383-22.109,20.64-28.734
	c5.257,6.625,13.492,17.44,20.64,28.734c12.175,19.237,13.992,28.399,13.992,32.148c0,19.096-15.536,34.633-34.632,34.633
	S217.48,97.06,217.48,77.964z"/>
<g>
</g>
<g>
</g>
<g>
</g>
<g>
</g>
<g>
</g>
<g>
</g>
<g>
</g>
<g>
</g>
<g>
</g>
<g>
</g>
<g>
</g>
<g>
</g>
<g>
</g>
<g>
</g>
<g>
</g>
</svg>
