<?xml version="1.0" encoding="iso-8859-1"?>
<!-- Generator: Adobe Illustrator 19.0.0, SVG Export Plug-In . SVG Version: 6.00 Build 0)  -->
<svg version="1.1" width="30px" height="30px" id="Capa_1" xmlns="http://www.w3.org/2000/svg" xmlns:xlink="http://www.w3.org/1999/xlink" x="0px" y="0px"
	 viewBox="0 0 512 512" style="enable-background:new 0 0 512 512;" xml:space="preserve">
<rect x="171.6" y="363.49" style="fill:#FFCF65;" width="168.8" height="53.891"/>
<path style="fill:#FFB450;" d="M277.686,363.492H171.599v20.93c25.78,11.494,54.34,17.893,84.401,17.893
	c2.047,0,4.087-0.03,6.12-0.09c8.53-0.25,15.566,6.624,15.566,15.157l0,0h62.715v-32.961v-20.93L277.686,363.492L277.686,363.492z"
	/>
<ellipse style="fill:#EDEDEE;" cx="256" cy="195.59" rx="188.32" ry="187.94"/>
<ellipse style="fill:#F9F9F9;" cx="206.26" cy="142.87" rx="100.82" ry="100.62"/>
<path style="fill:#DCDBDE;" d="M256,7.649c-9.803,0-19.431,0.75-28.83,2.19c90.32,13.848,159.489,91.738,159.489,185.753
	S317.491,367.499,227.17,381.347c9.399,1.441,19.027,2.19,28.83,2.19c104.006,0,188.319-84.145,188.319-187.944
	C444.319,91.795,360.006,7.649,256,7.649z"/>
<path style="fill:#83808C;" d="M395.404,466.233H116.596v-21.089c0-15.877,12.871-28.748,28.748-28.748h221.311
	c15.877,0,28.748,12.871,28.748,28.748v21.089H395.404z"/>
<g>
	<path style="fill:#736F7B;" d="M366.732,416.395h-59.659c15.835,0,28.672,12.906,28.672,28.825v21.012h59.659V445.22
		C395.404,429.301,382.567,416.395,366.732,416.395z"/>
	<path style="fill:#736F7B;" d="M415.81,504.351H96.19v-28.628c0-5.388,4.368-9.755,9.755-9.755h300.11
		c5.388,0,9.755,4.368,9.755,9.755V504.351z"/>
</g>
<path style="fill:#625D6B;" d="M406.055,465.967h-54.157c5.388,0,9.755,4.368,9.755,9.755v28.628h54.157v-28.628
	C415.81,470.335,411.443,465.967,406.055,465.967z"/>
<path style="fill:#FFFFFF;" d="M186.411,92.43l14.979-0.24c3.409-0.055,4.554,4.532,1.52,6.086l-13.333,6.832
	c-1.425,0.73-2.097,2.396-1.578,3.91l4.857,14.172c1.105,3.225-2.902,5.732-5.319,3.327l-10.618-10.569
	c-1.135-1.129-2.927-1.254-4.206-0.292l-11.978,8.999c-2.726,2.048-6.348-0.989-4.807-4.03l6.77-13.364
	c0.723-1.428,0.288-3.171-1.022-4.091l-12.26-8.611c-2.79-1.959-1.021-6.343,2.347-5.817l14.802,2.309
	c1.582,0.247,3.105-0.706,3.575-2.236l4.401-14.32c1.001-3.259,5.717-2.931,6.258,0.435l2.378,14.791
	C183.433,91.302,184.81,92.456,186.411,92.43z"/>
<path d="M406.055,458.318h-3.002v-13.251c0-20.027-16.294-36.321-36.321-36.321H348.05v-40.464
	c30.153-16.04,55.648-39.672,73.908-68.624c19.632-31.126,30.01-67.112,30.01-104.065c0-44.274-14.456-86.034-41.805-120.767
	c-2.614-3.321-7.423-3.892-10.742-1.278c-3.32,2.614-3.891,7.423-1.278,10.742c25.204,32.009,38.526,70.497,38.526,111.303
	c0,34.061-9.562,67.223-27.651,95.903c-17.382,27.56-41.871,49.898-70.859,64.695c-0.405,0.124-0.804,0.27-1.19,0.463
	c-18.284,9.176-47.805,19.945-84.693,19.195c-26.628-0.55-53.339-7.187-77.243-19.194c-0.386-0.194-0.787-0.34-1.193-0.465
	c-28.988-14.797-53.476-37.135-70.859-64.695c-18.089-28.68-27.65-61.843-27.65-95.903c0-99.415,81.048-180.295,180.669-180.295
	c41.875,0,82.69,14.622,114.925,41.172c3.262,2.686,8.083,2.22,10.768-1.041c2.686-3.261,2.22-8.082-1.041-10.768
	C345.684,15.862,301.415,0,256,0C147.943,0,60.032,87.743,60.032,195.594c0,36.953,10.377,72.938,30.01,104.065
	c18.26,28.951,43.755,52.583,73.908,68.624v40.464h-18.682c-20.027,0-36.321,16.294-36.321,36.321v13.251h-3.002
	c-9.598,0-17.405,7.808-17.405,17.405v28.627c0,4.225,3.424,7.649,7.649,7.649h319.622c4.225,0,7.649-3.424,7.649-7.649v-28.627
	C423.46,466.125,415.652,458.318,406.055,458.318z M179.249,375.462c22.973,9.779,47.873,15.171,72.712,15.683
	c33.252,0.692,60.983-7.27,80.79-15.69v33.291H179.249V375.462z M408.161,496.701H103.839v-20.978c0-1.161,0.945-2.107,2.107-2.107
	h10.651h20.946h14.959c4.225,0,7.649-3.424,7.649-7.649s-3.424-7.649-7.649-7.649h-14.959h-13.297v-13.251
	c0-11.592,9.43-21.022,21.022-21.022H171.6h168.8h26.332c11.592,0,21.022,9.43,21.022,21.022v13.251H232.73h-37.391
	c-4.225,0-7.649,3.424-7.649,7.649s3.424,7.649,7.649,7.649h37.391h162.673h10.651c1.161,0,2.107,0.945,2.107,2.107L408.161,496.701
	L408.161,496.701z"/>
<g>
</g>
<g>
</g>
<g>
</g>
<g>
</g>
<g>
</g>
<g>
</g>
<g>
</g>
<g>
</g>
<g>
</g>
<g>
</g>
<g>
</g>
<g>
</g>
<g>
</g>
<g>
</g>
<g>
</g>
</svg>
