<?xml version="1.0" encoding="iso-8859-1"?>
<!-- Generator: Adobe Illustrator 19.0.0, SVG Export Plug-In . SVG Version: 6.00 Build 0)  -->
<svg version="1.1" width="30px" height="30px" id="Capa_1" xmlns="http://www.w3.org/2000/svg" xmlns:xlink="http://www.w3.org/1999/xlink" x="0px" y="0px"
	 viewBox="0 0 512.001 512.001" style="enable-background:new 0 0 512.001 512.001;" xml:space="preserve">
<path style="fill:#1D89FF;" d="M256,55.658c-67.851,0-122.856,55.004-122.856,122.856S188.148,301.37,256,301.37
	s122.856-55.005,122.856-122.856S323.852,55.658,256,55.658z M256,255.271c-42.392,0-76.758-34.366-76.758-76.758
	s34.366-76.758,76.758-76.758s76.758,34.366,76.758,76.758S298.392,255.271,256,255.271z"/>
<path style="fill:#FFCF65;" d="M157.09,318.277c1.124-0.103-54.777-50.664-54.777-50.664
	c-18.756-16.236-31.428-38.641-34.547-63.251c-0.024-0.191-0.048-0.382-0.071-0.573c-3.604-29.652,4.911-57.971,21.645-80.023
	c2.847-3.752-1.829-8.525-5.68-5.815c-32.21,22.665-51.224,61.873-46.139,103.706c2.231,18.353,10.251,45.96,20.987,62.322
	c0.002,0.002,76.092,116.26,98.501,150.498c3.08,4.706,9.802,5.154,13.487,0.904l50.774-58.55L157.09,318.277z"/>
<path style="fill:#FFB450;" d="M157.09,318.277c1.124-0.103-54.777-50.663-54.777-50.663
	c-18.756-16.236-31.428-38.641-34.547-63.251c-0.024-0.191-0.048-0.382-0.071-0.573c-3.609-29.687,4.931-58.038,21.705-80.101
	c2.823-3.713-1.807-8.496-5.625-5.817c-28.692,20.134-46.937,53.382-47.065,89.935c3.82,23.25,16.149,44.332,34.025,59.807
	c0,0,55.901,50.561,54.777,50.663l18.935,17.276c25.17,22.965,27.441,61.809,5.119,87.551l0,0c2.867,4.38,5.384,8.227,7.445,11.375
	c3.08,4.706,9.802,5.153,13.487,0.904l50.774-58.55L157.09,318.277z"/>
<circle style="fill:#FFCF65;" cx="295.401" cy="481.75" r="22.706"/>
<circle style="fill:#FF7B05;" cx="295.401" cy="481.75" r="8.492"/>
<path style="fill:#FFCF65;" d="M354.91,318.277c-1.124-0.103,54.777-50.664,54.777-50.664
	c18.756-16.236,31.428-38.641,34.547-63.251c0.024-0.191,0.048-0.382,0.071-0.573c3.619-29.772-4.98-58.201-21.849-80.29
	c-2.789-3.652,1.762-8.424,5.53-5.795c32.425,22.626,51.596,61.968,46.493,103.954c-2.231,18.353-10.251,45.96-20.987,62.322
	c-0.002,0.002-76.092,116.26-98.501,150.498c-3.08,4.706-9.802,5.154-13.487,0.904l-50.774-58.55L354.91,318.277z"/>
<path style="fill:#FFB450;" d="M354.992,434.478c22.408-34.238,98.499-150.496,98.501-150.498
	c10.737-16.361,18.757-43.968,20.987-62.322c5.104-41.986-14.068-81.328-46.493-103.954c-1.433-1-2.977-0.926-4.19-0.254
	c20.196,22.833,36.612,60.134,32.644,92.774c-2.231,18.353-10.251,45.96-20.988,62.322c-0.001,0.002-76.092,116.26-98.501,150.498
	c-0.91,1.391-2.142,2.399-3.516,3.035l8.067,9.303c1.842,2.125,4.444,3.075,6.97,2.906c0.316-0.021,0.63-0.06,0.942-0.116
	C351.6,437.781,353.644,436.537,354.992,434.478z"/>
<circle style="fill:#FFCF65;" cx="216.601" cy="481.75" r="22.706"/>
<circle style="fill:#FF7B05;" cx="216.601" cy="482.31" r="8.492"/>
<g>
	<path style="fill:#1574D1;" d="M330.887,275.904c-1.287-2.732-3.051-5.251-5.251-7.45l-24.18-24.181v-3.917
		c-12.726,9.37-28.441,14.915-45.456,14.915s-32.73-5.546-45.456-14.915v3.917l-24.182,24.182c-2.227,2.228-3.971,4.757-5.238,7.458
		c20.729,15.96,46.691,25.457,74.876,25.457C284.189,301.369,310.156,291.868,330.887,275.904z"/>
	<path style="fill:#1574D1;" d="M181.124,81.115c1.267,2.701,3.011,5.231,5.239,7.458l24.181,24.181v3.917
		c12.726-9.37,28.441-14.915,45.456-14.915s32.73,5.546,45.456,14.915v-3.917l24.179-24.18c2.2-2.2,3.964-4.718,5.252-7.451
		C310.156,65.158,284.189,55.657,256,55.657C227.816,55.658,201.854,65.156,181.124,81.115z"/>
</g>
<path style="fill:#2BB7FF;" d="M286.369,250.523V106.505l28.599-28.6c4.453-4.453,4.453-11.672,0-16.125l-50.906-50.906
	c-4.453-4.453-11.672-4.453-16.125,0l-50.906,50.906c-4.453,4.453-4.453,11.672,0,16.125l28.599,28.6v144.018l-28.599,28.6
	c-4.453,4.453-4.453,11.672,0,16.125l50.906,50.906c4.453,4.453,11.672,4.453,16.125,0l50.906-50.906
	c4.453-4.453,4.453-11.672,0-16.125L286.369,250.523z"/>
<path d="M432.304,111.519c-4.704-3.283-11.003-2.65-14.982,1.503c-3.985,4.16-4.347,10.491-0.861,15.057
	c16.382,21.451,23.611,48.017,20.358,74.788l-0.068,0.548c-2.828,22.306-14.193,43.08-32.001,58.497
	c-3.15,2.727-3.494,7.49-0.767,10.64c2.728,3.149,7.491,3.492,10.64,0.766c20.625-17.854,33.8-42.006,37.098-68.028l0.073-0.589
	c2.777-22.849-1.099-45.558-11-65.818c20.042,21.891,29.873,51.634,26.198,81.866c-2.091,17.203-9.744,43.76-19.806,59.093
	l0.018,0.011c-1.955,2.946-14.302,21.811-98.523,150.494c-0.062,0.095-0.251,0.384-0.708,0.415
	c-0.312,0.019-0.566-0.087-0.768-0.322l-45.956-52.993c0,0,79.826-73.605,85.44-78.723c3.079-2.807,3.299-7.578,0.493-10.656
	c-2.808-3.08-7.58-3.299-10.657-0.493c-9.063,8.262-112.677,105.099-112.677,105.099l0.407-37.552
	c1.857-0.897,3.604-2.097,5.143-3.635l50.905-50.906c3.222-3.221,5.125-7.4,5.476-11.893c17.603-11.174,32.382-26.489,42.907-44.515
	c11.588-19.848,17.714-42.553,17.714-65.661c0-44.567-23.114-86.354-60.621-110.171c-0.35-4.494-2.254-8.674-5.475-11.896
	L269.397,5.54c-7.387-7.386-19.405-7.386-26.794,0l-50.906,50.907c-3.311,3.312-5.126,7.555-5.468,11.893
	c-27.304,17.297-47.042,43.72-55.785,74.848c-1.127,4.011,1.212,8.175,5.222,9.302c0.683,0.192,1.369,0.283,2.044,0.283
	c3.295,0,6.323-2.177,7.259-5.506c7.419-26.42,23.805-49.009,46.472-64.311c0.089,0.092,0.165,0.192,0.256,0.283l22.215,22.214
	c-25.917,14.931-42.213,42.679-42.213,73.061c0,30.474,16.277,58.137,42.217,73.057l-22.219,22.218
	c-0.09,0.09-0.165,0.188-0.252,0.279c-31.476-21.338-50.757-57.312-50.757-95.554c0-4.166-3.377-7.543-7.543-7.543
	c-4.167,0-7.543,3.377-7.543,7.543c0,23.107,6.125,45.811,17.713,65.658c10.526,18.029,25.308,33.347,42.915,44.522
	c0.344,4.337,2.158,8.577,5.468,11.887l50.907,50.907c1.924,1.924,4.166,3.334,6.555,4.256l-0.407,37.519
	c0,0-105.853-98.894-113.847-106.204c-13.591-12.428-27.394-24.914-27.531-25.039c-0.041-0.036-0.082-0.073-0.124-0.109
	c-17.808-15.416-29.173-36.191-31.997-58.474l-0.069-0.557c-3.242-26.667,3.92-53.143,20.166-74.552
	c3.491-4.601,3.118-10.954-0.888-15.106c-4.025-4.173-10.394-4.777-15.143-1.438c-35.657,25.091-54.543,67.541-49.286,110.785
	c2.354,19.375,10.726,48.112,22.169,65.55l0.023-0.015c1.739,2.706,10.528,16.137,57.919,88.544
	c2.283,3.486,6.959,4.462,10.443,2.18c3.486-2.282,4.462-6.957,2.181-10.443c-27.789-42.457-57.719-88.187-57.943-88.531
	c-0.003-0.004-0.006-0.009-0.009-0.013c-10.064-15.335-17.716-41.892-19.806-59.093c-3.672-30.202,6.159-59.961,26.195-81.857
	c-9.898,20.261-13.774,42.967-11,65.784l0.079,0.635c3.292,25.974,16.443,50.104,37.031,67.952
	c18.805,17.013,113.435,104.186,113.435,104.186l-45.956,52.994c-0.201,0.234-0.458,0.341-0.767,0.321
	c-0.457-0.031-0.646-0.32-0.708-0.414L141.494,397c-2.282-3.487-6.957-4.461-10.443-2.181c-3.486,2.282-4.462,6.957-2.181,10.443
	l21.826,33.347c2.774,4.238,7.263,6.864,12.316,7.205c0.371,0.025,0.741,0.037,1.109,0.037c4.645,0,8.996-1.979,12.072-5.527
	l45.515-52.485l23.529,23.121l-48.757,47.912c-0.408,0.401-0.756,0.84-1.053,1.302c-5.596,5.493-9.076,13.134-9.076,21.576
	c0,16.68,13.57,30.25,30.25,30.25s30.25-13.57,30.25-30.25c0-13.965-9.515-25.745-22.401-29.211l23.914-23.499l-0.199,18.333
	c-0.045,4.166,3.295,7.58,7.462,7.625c0.027,0,0.055,0,0.083,0c4.127,0,7.496-3.324,7.541-7.461l0.203-18.675l24.096,23.678
	c-12.886,3.466-22.401,15.245-22.401,29.211c0,16.68,13.57,30.25,30.25,30.25s30.249-13.57,30.249-30.25
	c0-8.442-3.479-16.083-9.075-21.575c-0.298-0.462-0.645-0.901-1.054-1.303l-48.758-47.912l23.529-23.121l45.514,52.484
	c3.077,3.549,7.428,5.528,12.073,5.528c0.367,0,0.738-0.012,1.109-0.037c5.052-0.341,9.542-2.967,12.316-7.206
	c22.36-34.164,98.173-149.999,98.495-150.49c11.442-17.436,19.813-46.173,22.169-65.55
	C487.248,179.133,468.218,136.581,432.304,111.519z M371.313,178.514c0,38.242-19.28,74.216-50.757,95.554
	c-0.087-0.091-0.164-0.189-0.253-0.279l-22.218-22.219c25.904-14.937,42.217-42.727,42.217-73.056
	c0-30.603-16.274-58.322-42.178-73.095l22.179-22.179c0.091-0.091,0.168-0.191,0.256-0.283
	C352.042,104.296,371.313,140.247,371.313,178.514z M293.913,120.514c19.321,12.513,31.302,34.186,31.302,58
	c0,23.562-11.995,45.252-31.302,57.91V120.514z M186.786,178.514c0-23.604,11.986-45.265,31.302-57.914v115.843
	C198.754,223.808,186.786,202.193,186.786,178.514z M202.366,289.913c-1.505-1.504-1.505-3.953,0-5.457l28.6-28.6
	c0.888-0.888,1.531-1.974,1.887-3.155c0.087-0.17,0.187-0.331,0.262-0.51c0.802-1.899,0.06-145.687,0.06-145.687
	c0-2.001-0.795-3.92-2.209-5.334l-28.6-28.6c-1.505-1.504-1.505-3.952,0-5.457l50.905-50.906c0.752-0.752,1.741-1.129,2.73-1.129
	c0.989,0,1.976,0.376,2.728,1.128l50.907,50.907c0.729,0.729,1.13,1.698,1.13,2.728c0,0.257-0.025,0.51-0.074,0.757
	c-0.001,0.006-0.003,0.011-0.005,0.017c-0.149,0.735-0.508,1.411-1.052,1.954l-28.599,28.6c-1.414,1.415-2.209,3.333-2.209,5.334
	v0.861c-0.034,0.416-0.034,0.83,0,1.241v141.917c0,2.001,0.795,3.919,2.209,5.334l28.6,28.6c0.729,0.729,1.13,1.698,1.13,2.728
	s-0.401,1.999-1.131,2.729l-50.906,50.906c-1.503,1.504-3.953,1.504-5.456,0L202.366,289.913z M231.764,481.75
	c0,8.361-6.802,15.163-15.163,15.163s-15.163-6.802-15.163-15.163s6.802-15.163,15.163-15.163S231.764,473.389,231.764,481.75z
	 M295.4,496.913c-8.362,0-15.163-6.802-15.163-15.163s6.802-15.163,15.163-15.163s15.162,6.802,15.162,15.163
	C310.562,490.111,303.76,496.913,295.4,496.913z"/>
<g>
</g>
<g>
</g>
<g>
</g>
<g>
</g>
<g>
</g>
<g>
</g>
<g>
</g>
<g>
</g>
<g>
</g>
<g>
</g>
<g>
</g>
<g>
</g>
<g>
</g>
<g>
</g>
<g>
</g>
</svg>
