<?xml version="1.0" encoding="iso-8859-1"?>
<!-- Generator: Adobe Illustrator 19.0.0, SVG Export Plug-In . SVG Version: 6.00 Build 0)  -->
<svg version="1.1" width="30px" height="30px" id="Capa_1" xmlns="http://www.w3.org/2000/svg" xmlns:xlink="http://www.w3.org/1999/xlink" x="0px" y="0px"
	 viewBox="0 0 512 512" style="enable-background:new 0 0 512 512;" xml:space="preserve">
<path style="fill:#FFD5C2;" d="M379.828,166.556c-15.971,0-28.918,12.947-28.918,28.918V91.501
	c0-17.473-14.164-31.637-31.637-31.637l0,0c-17.472,0-31.637,14.164-31.637,31.637V39.286c0-17.473-14.164-31.637-31.637-31.637l0,0
	c-17.472,0-31.636,14.164-31.636,31.637v52.215c0-17.473-14.164-31.637-31.637-31.637l0,0c-17.472,0-31.637,14.164-31.637,31.637
	v38.984c0-17.034-13.809-30.843-30.843-30.843h-1.587c-17.034,0-30.843,13.809-30.843,30.843v93.827v9.159V340.82
	c0,90.316,70.821,163.531,158.183,163.531l0,0c87.362,0,158.183-73.216,158.183-163.531v-32.076v-84.432v-57.756L379.828,166.556
	L379.828,166.556z"/>
<g>
	<path style="fill:#FFBBAE;" d="M130.247,99.641h-1.587c-3.624,0-7.1,0.63-10.33,1.779c11.953,4.249,20.513,15.655,20.513,29.065
		v80.738c0,12.287,9.96,22.247,22.247,22.247l0,0V130.485C161.09,113.45,147.281,99.641,130.247,99.641z"/>
	<path style="fill:#FFBBAE;" d="M192.727,59.864L192.727,59.864c-3.818,0-7.478,0.677-10.867,1.916
		c12.12,4.433,20.77,16.066,20.77,29.721v120.236c0,12.003,9.73,21.733,21.733,21.733l0,0V91.501
		C224.363,74.028,210.199,59.864,192.727,59.864z"/>
	<path style="fill:#FFBBAE;" d="M319.273,59.864L319.273,59.864c-3.967,0-7.759,0.737-11.258,2.069
		c11.912,4.539,20.379,16.061,20.379,29.567v119.453c0,12.435,10.08,22.515,22.515,22.515l0,0V91.501
		C350.91,74.028,336.746,59.864,319.273,59.864z"/>
	<path style="fill:#FFBBAE;" d="M256,7.65L256,7.65c-4.162,0-8.132,0.812-11.772,2.272c11.641,4.671,19.865,16.054,19.865,29.365
		v170.639c0,13.003,10.541,23.544,23.544,23.544l0,0V39.286C287.637,21.814,273.472,7.65,256,7.65z"/>
	<path style="fill:#FFBBAE;" d="M392.818,166.556v66.914h-0.029v112.698c0,83.766-65.114,152.313-147.486,157.815
		c3.536,0.236,7.101,0.368,10.697,0.368l0,0c87.362,0,158.183-70.821,158.183-158.183v-37.424V233.47v-66.914H392.818z"/>
</g>
<path d="M414.183,158.906h-34.356c-7.929,0-15.27,2.545-21.268,6.849V91.501c0-21.662-17.624-39.286-39.287-39.286
	c-9.027,0-17.346,3.068-23.987,8.205V39.286C295.286,17.624,277.662,0,256,0s-39.286,17.624-39.286,39.286V60.42
	c-6.641-5.137-14.96-8.205-23.987-8.205c-21.662,0-39.287,17.624-39.287,39.286v8.288c-6.455-4.889-14.49-7.797-23.193-7.797h-1.587
	c-21.225,0-38.493,17.268-38.493,38.492V233.47v112.697c0,44.486,17.376,86.257,48.928,117.618c1.492,1.483,3.442,2.224,5.392,2.224
	c1.965,0,3.93-0.753,5.425-2.257c2.978-2.996,2.963-7.84-0.033-10.818c-28.641-28.468-44.414-66.385-44.414-106.767V233.47V130.484
	c0-12.789,10.405-23.193,23.194-23.193h1.587c12.789,0,23.193,10.404,23.193,23.193V233.47c0,4.225,3.424,7.649,7.649,7.649
	s7.649-3.424,7.649-7.649V130.484V91.501c0-13.226,10.761-23.987,23.988-23.987c13.226,0,23.987,10.761,23.987,23.987V233.47
	c0,4.225,3.424,7.649,7.649,7.649s7.649-3.424,7.649-7.649V91.501V39.286c0-13.226,10.761-23.987,23.987-23.987
	s23.987,10.761,23.987,23.987v93.604c0,4.225,3.424,7.649,7.649,7.649s7.649-3.424,7.649-7.649V91.501
	c0-13.226,10.761-23.987,23.987-23.987c13.227,0,23.988,10.761,23.988,23.987v103.972v37.997v47.207
	c0,4.225,3.424,7.649,7.649,7.649s7.649-3.424,7.649-7.649V233.47v-37.997c0-11.727,9.541-21.268,21.268-21.268h26.706v59.265
	v75.273v37.424c0,83.005-67.529,150.534-150.534,150.534c-29.557,0-58.163-8.558-82.728-24.749
	c-3.526-2.326-8.271-1.351-10.597,2.176c-2.326,3.528-1.351,8.272,2.176,10.597C191.923,502.569,223.441,512,256,512
	c91.44,0,165.833-74.392,165.833-165.833v-37.424V233.47v-66.914C421.833,162.331,418.408,158.906,414.183,158.906z"/>
<path d="M295.286,233.47v-66.914c0-4.225-3.424-7.649-7.649-7.649s-7.649,3.424-7.649,7.649v66.914c0,4.225,3.424,7.649,7.649,7.649
	S295.286,237.695,295.286,233.47z"/>
<path d="M128.008,318.636c0.15,4.128,3.543,7.372,7.639,7.372c0.094,0,0.188-0.002,0.283-0.005
	c32.814-1.192,82.798-7.011,178.864-41.713c3.973-1.435,6.031-5.82,4.596-9.793c-1.435-3.974-5.824-6.03-9.793-4.596
	c-94.072,33.981-142.522,39.661-174.222,40.813C131.152,310.868,127.855,314.414,128.008,318.636z"/>
<path d="M205.775,361.389c22.117-5.498,53.136-14.095,81.218-22.805c-20.671,23.271-27.045,50.437-30.322,64.409
	c-4.29,18.287-5.558,37.278-3.769,56.446c0.371,3.964,3.703,6.939,7.608,6.939c0.274,0,0.551-0.016,0.83-0.044
	c4.143-0.425,7.183-4.17,6.796-8.317c-1.635-17.519-0.481-34.855,3.43-51.531c3.645-15.539,10.429-44.463,35.366-66.16
	c6.941-6.04,14.801-11.092,23.361-15.014c0.635-0.291,1.205-0.665,1.717-1.092c14.073-4.606,23.578-7.819,24.798-8.233
	c4.001-1.356,6.146-5.698,4.791-9.699c-1.356-4.002-5.698-6.147-9.699-4.791c-0.989,0.335-99.474,33.631-149.505,44.971
	c-29.012,6.575-43.658,8.626-50.608,9.233c-3.235,0.283-5.902,2.631-6.585,5.806c-0.016,0.073-0.031,0.145-0.047,0.218
	c-1.039,4.809,2.826,9.275,7.733,8.926C162.747,369.95,180.166,367.756,205.775,361.389z"/>
<g>
</g>
<g>
</g>
<g>
</g>
<g>
</g>
<g>
</g>
<g>
</g>
<g>
</g>
<g>
</g>
<g>
</g>
<g>
</g>
<g>
</g>
<g>
</g>
<g>
</g>
<g>
</g>
<g>
</g>
</svg>
